<svg width="216" height="56" viewBox="0 0 216 56" fill="none" xmlns="http://www.w3.org/2000/svg">
<rect width="56" height="56" rx="12" fill="#4506CA"/>
<path d="M22.4767 28.0001L6.72166 40.8983L6.72166 15.1018L22.4767 28.0001Z" fill="#14E2B2"/>
<path d="M38.3923 14.8936L22.6373 27.7919L22.6373 1.99537L38.3923 14.8936Z" fill="#14E2B2"/>
<path d="M38.4996 41.1064L22.7446 54.0046L22.7446 28.2081L38.4996 41.1064Z" fill="#14E2B2"/>
<path d="M54.4811 28.0114L38.7261 40.9097V15.1132L54.4811 28.0114Z" fill="#14E2B2"/>
<path d="M77.472 40C76.944 40 76.5 39.82 76.14 39.46C75.78 39.1 75.6 38.656 75.6 38.128V13.756C75.6 13.204 75.78 12.76 76.14 12.424C76.5 12.064 76.944 11.884 77.472 11.884H83.952C85.752 11.884 87.348 12.268 88.74 13.036C90.132 13.78 91.212 14.812 91.98 16.132C92.772 17.452 93.168 18.988 93.168 20.74C93.168 22.372 92.772 23.824 91.98 25.096C91.212 26.368 90.132 27.364 88.74 28.084C87.348 28.804 85.752 29.164 83.952 29.164H79.344V38.128C79.344 38.656 79.164 39.1 78.804 39.46C78.468 39.82 78.024 40 77.472 40ZM92.412 40C92.076 40 91.764 39.928 91.476 39.784C91.212 39.64 90.984 39.412 90.792 39.1L84.312 28.66L87.948 27.616L93.852 37.12C94.284 37.816 94.344 38.476 94.032 39.1C93.72 39.7 93.18 40 92.412 40ZM79.344 25.708H83.952C85.056 25.708 86.028 25.504 86.868 25.096C87.708 24.664 88.368 24.076 88.848 23.332C89.328 22.564 89.568 21.7 89.568 20.74C89.568 19.684 89.328 18.748 88.848 17.932C88.368 17.116 87.708 16.48 86.868 16.024C86.028 15.568 85.056 15.34 83.952 15.34H79.344V25.708ZM107.238 40.144C105.246 40.144 103.47 39.724 101.91 38.884C100.374 38.02 99.1621 36.844 98.2741 35.356C97.4101 33.844 96.9781 32.116 96.9781 30.172C96.9781 28.204 97.3861 26.476 98.2021 24.988C99.0421 23.476 100.194 22.3 101.658 21.46C103.122 20.596 104.802 20.164 106.698 20.164C108.57 20.164 110.178 20.584 111.522 21.424C112.866 22.24 113.886 23.38 114.582 24.844C115.302 26.284 115.662 27.952 115.662 29.848C115.662 30.304 115.506 30.688 115.194 31C114.882 31.288 114.486 31.432 114.006 31.432H99.4981V28.552H113.898L112.422 29.56C112.398 28.36 112.158 27.292 111.702 26.356C111.246 25.396 110.598 24.64 109.758 24.088C108.918 23.536 107.898 23.26 106.698 23.26C105.33 23.26 104.154 23.56 103.17 24.16C102.21 24.76 101.478 25.588 100.974 26.644C100.47 27.676 100.218 28.852 100.218 30.172C100.218 31.492 100.518 32.668 101.118 33.7C101.718 34.732 102.546 35.548 103.602 36.148C104.658 36.748 105.87 37.048 107.238 37.048C107.982 37.048 108.738 36.916 109.506 36.652C110.298 36.364 110.934 36.04 111.414 35.68C111.774 35.416 112.158 35.284 112.566 35.284C112.998 35.26 113.37 35.38 113.682 35.644C114.09 36.004 114.306 36.4 114.33 36.832C114.354 37.264 114.162 37.636 113.754 37.948C112.938 38.596 111.918 39.124 110.694 39.532C109.494 39.94 108.342 40.144 107.238 40.144ZM146.193 40.036C145.665 40.036 145.221 39.868 144.861 39.532C144.525 39.172 144.357 38.728 144.357 38.2V27.904C144.357 26.392 143.985 25.276 143.241 24.556C142.497 23.812 141.525 23.44 140.325 23.44C139.077 23.44 138.045 23.872 137.229 24.736C136.437 25.6 136.041 26.704 136.041 28.048H133.053C133.053 26.488 133.389 25.12 134.061 23.944C134.733 22.744 135.669 21.808 136.869 21.136C138.093 20.464 139.485 20.128 141.045 20.128C142.413 20.128 143.625 20.428 144.681 21.028C145.737 21.628 146.553 22.516 147.129 23.692C147.729 24.844 148.029 26.248 148.029 27.904V38.2C148.029 38.728 147.861 39.172 147.525 39.532C147.189 39.868 146.745 40.036 146.193 40.036ZM122.181 40.036C121.653 40.036 121.209 39.868 120.849 39.532C120.513 39.172 120.345 38.728 120.345 38.2V22.18C120.345 21.628 120.513 21.184 120.849 20.848C121.209 20.512 121.653 20.344 122.181 20.344C122.733 20.344 123.177 20.512 123.513 20.848C123.849 21.184 124.017 21.628 124.017 22.18V38.2C124.017 38.728 123.849 39.172 123.513 39.532C123.177 39.868 122.733 40.036 122.181 40.036ZM134.205 40.036C133.677 40.036 133.233 39.868 132.873 39.532C132.537 39.172 132.369 38.728 132.369 38.2V27.904C132.369 26.392 131.997 25.276 131.253 24.556C130.509 23.812 129.537 23.44 128.337 23.44C127.089 23.44 126.057 23.872 125.241 24.736C124.425 25.6 124.017 26.704 124.017 28.048H121.749C121.749 26.488 122.061 25.12 122.685 23.944C123.309 22.744 124.173 21.808 125.277 21.136C126.381 20.464 127.641 20.128 129.057 20.128C130.425 20.128 131.637 20.428 132.693 21.028C133.749 21.628 134.565 22.516 135.141 23.692C135.741 24.844 136.041 26.248 136.041 27.904V38.2C136.041 38.728 135.873 39.172 135.537 39.532C135.201 39.868 134.757 40.036 134.205 40.036ZM163.059 40.144C161.115 40.144 159.399 39.724 157.911 38.884C156.423 38.02 155.247 36.844 154.383 35.356C153.543 33.844 153.123 32.116 153.123 30.172C153.123 28.204 153.543 26.476 154.383 24.988C155.247 23.476 156.423 22.3 157.911 21.46C159.399 20.596 161.115 20.164 163.059 20.164C164.979 20.164 166.683 20.596 168.171 21.46C169.659 22.3 170.823 23.476 171.663 24.988C172.527 26.476 172.959 28.204 172.959 30.172C172.959 32.116 172.539 33.844 171.699 35.356C170.859 36.844 169.695 38.02 168.207 38.884C166.719 39.724 165.003 40.144 163.059 40.144ZM163.059 36.904C164.307 36.904 165.411 36.616 166.371 36.04C167.331 35.464 168.075 34.672 168.603 33.664C169.155 32.656 169.431 31.492 169.431 30.172C169.431 28.852 169.155 27.688 168.603 26.68C168.075 25.648 167.331 24.844 166.371 24.268C165.411 23.692 164.307 23.404 163.059 23.404C161.811 23.404 160.707 23.692 159.747 24.268C158.787 24.844 158.031 25.648 157.479 26.68C156.927 27.688 156.651 28.852 156.651 30.172C156.651 31.492 156.927 32.656 157.479 33.664C158.031 34.672 158.787 35.464 159.747 36.04C160.707 36.616 161.811 36.904 163.059 36.904ZM180.188 27.688C180.188 26.248 180.536 24.964 181.232 23.836C181.952 22.684 182.912 21.772 184.112 21.1C185.312 20.428 186.632 20.092 188.072 20.092C189.512 20.092 190.58 20.332 191.276 20.812C191.996 21.268 192.272 21.82 192.104 22.468C192.032 22.804 191.888 23.068 191.672 23.26C191.48 23.428 191.252 23.536 190.988 23.584C190.724 23.632 190.436 23.62 190.124 23.548C188.588 23.236 187.208 23.212 185.984 23.476C184.76 23.74 183.788 24.232 183.068 24.952C182.372 25.672 182.024 26.584 182.024 27.688H180.188ZM180.224 40C179.648 40 179.204 39.856 178.892 39.568C178.58 39.256 178.424 38.8 178.424 38.2V22.108C178.424 21.532 178.58 21.088 178.892 20.776C179.204 20.464 179.648 20.308 180.224 20.308C180.824 20.308 181.268 20.464 181.556 20.776C181.868 21.064 182.024 21.508 182.024 22.108V38.2C182.024 38.776 181.868 39.22 181.556 39.532C181.268 39.844 180.824 40 180.224 40ZM202.698 40.144C200.946 40.144 199.374 39.712 197.982 38.848C196.59 37.96 195.486 36.772 194.67 35.284C193.878 33.772 193.482 32.068 193.482 30.172C193.482 28.276 193.914 26.572 194.778 25.06C195.666 23.548 196.854 22.36 198.342 21.496C199.854 20.608 201.546 20.164 203.418 20.164C205.29 20.164 206.97 20.608 208.458 21.496C209.946 22.36 211.122 23.548 211.986 25.06C212.874 26.572 213.318 28.276 213.318 30.172H211.914C211.914 32.068 211.506 33.772 210.69 35.284C209.898 36.772 208.806 37.96 207.414 38.848C206.022 39.712 204.45 40.144 202.698 40.144ZM203.418 36.904C204.642 36.904 205.734 36.616 206.694 36.04C207.654 35.44 208.41 34.636 208.962 33.628C209.514 32.596 209.79 31.444 209.79 30.172C209.79 28.876 209.514 27.724 208.962 26.716C208.41 25.684 207.654 24.88 206.694 24.304C205.734 23.704 204.642 23.404 203.418 23.404C202.218 23.404 201.126 23.704 200.142 24.304C199.182 24.88 198.414 25.684 197.838 26.716C197.286 27.724 197.01 28.876 197.01 30.172C197.01 31.444 197.286 32.596 197.838 33.628C198.414 34.636 199.182 35.44 200.142 36.04C201.126 36.616 202.218 36.904 203.418 36.904ZM211.482 40.036C210.954 40.036 210.51 39.868 210.15 39.532C209.814 39.172 209.646 38.728 209.646 38.2V32.692L210.33 28.876L213.318 30.172V38.2C213.318 38.728 213.138 39.172 212.778 39.532C212.442 39.868 212.01 40.036 211.482 40.036Z" fill="#EFEFEF"/>
</svg>
